<?xml version="1.0" encoding="utf-8"?>
<!-- Generator: Adobe Illustrator 24.1.1, SVG Export Plug-In . SVG Version: 6.00 Build 0)  -->
<svg version="1.1" id="Layer_1" xmlns="http://www.w3.org/2000/svg" xmlns:xlink="http://www.w3.org/1999/xlink" x="0px" y="0px"
	 viewBox="0 0 512 512" style="enable-background:new 0 0 512 512;" xml:space="preserve">
<g>
	<path d="M18.29,173.71h18.29c0.07-29.04,7.04-48.48,17.97-62.92c8.27-10.83,19.2-19.19,32.93-25.83
		c20.52-9.95,47.25-15.5,76.57-18.2c29.32-2.75,61.11-2.78,91.96-2.77c54.77-0.13,112.87,0.4,153.96,14.97
		c20.6,7.23,36.52,17.42,47.5,31.82c10.93,14.44,17.9,33.88,17.97,62.92c0.1,20.88-3.13,33.54-5.97,38.5
		c-1.4,2.55-2.32,3.16-2.67,3.4l-1.97,0.4c-3.02,0.26-11.74-2.68-21.25-9.24c-14.44-9.59-30.8-25.49-43-38.78
		c-6.13-6.65-11.29-12.67-14.89-16.99c-1.8-2.16-3.21-3.89-4.15-5.07l-1.06-1.33l-0.31-0.4c-3.45-4.43-8.82-7.06-14.43-7.06H146.29
		c-5.62,0-10.99,2.63-14.43,7.06l-0.59,0.74c-3.12,3.95-18.52,22.97-36.8,40.38c-9.1,8.7-18.96,16.97-27.81,22.62
		c-8.79,5.8-16.64,8.29-19.47,8.08l-1.97-0.4c-0.43-0.25-2.59-1.82-4.81-8.58c-2.17-6.61-3.86-17.69-3.83-33.33H18.29H0
		c0.1,24.13,2.93,41.76,10.34,55.84c3.73,6.97,8.98,13.07,15.62,17.16c6.61,4.13,14.23,5.91,21.22,5.88
		c15.85-0.26,28.96-7.18,41.57-15.41c18.74-12.59,36.23-29.97,49.57-44.41c13.28-14.42,22.17-25.85,22.39-26.12l-14.43-11.23v18.29
		h219.43v-18.29l-14.43,11.23c0.3,0.37,15.96,20.54,37.01,41.25c10.56,10.36,22.42,20.88,34.95,29.28
		c12.61,8.23,25.72,15.15,41.58,15.41c6.99,0.04,14.61-1.75,21.22-5.88c10.06-6.24,16.55-16.52,20.36-28.43
		c3.86-12.05,5.58-26.46,5.6-44.57c0.07-34.96-8.96-63.52-25.45-85.08c-12.3-16.17-28.37-28.06-46.14-36.61
		c-26.73-12.83-57.38-18.68-89.05-21.67c-31.68-2.95-64.49-2.92-95.36-2.93c-54.95,0.13-115.7-0.4-166.04,17.03
		c-25.11,8.77-48.06,22.58-64.5,44.18C8.96,110.19-0.07,138.76,0,173.71H18.29z M164.57,210.29l-12.93-12.93
		c-0.96,0.97-24.99,25.16-48.97,70.7c-23.96,45.5-47.83,112.52-47.82,198.23c0,4.81,1.95,9.53,5.36,12.93
		c3.41,3.41,8.11,5.36,12.93,5.36h365.71c4.81,0,9.52-1.95,12.93-5.36c3.41-3.41,5.36-8.11,5.36-12.93
		c0.01-85.71-23.85-152.73-47.82-198.23c-23.98-45.54-48.01-69.73-48.97-70.7c-3.41-3.41-8.11-5.36-12.93-5.36H164.57
		c-4.82,0-9.53,1.95-12.93,5.36L164.57,210.29v18.29h182.86v-18.29l-12.93,12.93l3.53-3.53l-3.55,3.5l0.03,0.03l3.53-3.53l-3.55,3.5
		c0.43,0.42,22.11,22.56,43.51,63.85c21.41,41.32,42.58,101.62,42.59,179.25h18.29V448H73.14v18.29h18.29
		c0.01-78.86,21.86-139.84,43.61-181.2c10.87-20.66,21.72-36.37,29.74-46.8c4.01-5.21,7.31-9.1,9.55-11.63l2.52-2.76l0.58-0.6
		l0.1-0.11l-3.57-3.52l3.55,3.55l0.03-0.03l-3.57-3.52l3.55,3.55L164.57,210.29v18.29V210.29z"/>
	<path d="M256,265.14v18.29c30.29,0.06,54.8,24.57,54.86,54.86c-0.06,30.29-24.57,54.8-54.86,54.86
		c-30.29-0.06-54.8-24.57-54.86-54.86c0.06-30.29,24.57-54.8,54.86-54.86V265.14v-18.29c-50.5,0.01-91.42,40.93-91.43,91.43
		c0.01,50.5,40.93,91.42,91.43,91.43c50.5-0.01,91.42-40.93,91.43-91.43c-0.01-50.5-40.93-91.42-91.43-91.43V265.14z"/>
</g>
</svg>
